<?xml version="1.0" encoding="UTF-8"?>
<svg id="Ebene_1" data-name="Ebene 1" xmlns="http://www.w3.org/2000/svg" viewBox="0 0 105.24 34.54">
  <defs>
    <style>
      .cls-1, .cls-2, .cls-3, .cls-4 {
        fill: #fff;
        stroke: #29293a;
      }

      .cls-1, .cls-2, .cls-4 {
        stroke-width: 1.64px;
      }

      .cls-1, .cls-4 {
        stroke-linecap: square;
      }

      .cls-3 {
        stroke-width: 1.64px;
      }

      .cls-4 {
        fill-rule: evenodd;
      }
    </style>
  </defs>
  <path class="cls-2" d="M6.32,11.82L.82,15.02v18.7h32.8V15.02l-5.5-3.2"/>
  <path class="cls-2" d="M6.32,18.02V.92h21.9v17"/>
  <path class="cls-2" d="M.82,15.02l32.8,18.7"/>
  <path class="cls-2" d="M33.62,15.02l-16.8,9.1"/>
  <path class="cls-1" d="M11.72,7.42h10.9"/>
  <path class="cls-1" d="M11.72,12.92h10.9"/>
  <path class="cls-1" d="M64.12.92c7.2,0,13.1,5.9,13.1,13.1"/>
  <path class="cls-4" d="M70.72,33.72c-14.5,0-26.2-11.8-26.2-26.3l5.5-5.5,7.6,7.6-5.5,5.5,10.9,10.9,5.5-5.5,7.6,7.6-5.4,5.7Z"/>
  <path class="cls-1" d="M70.72,14.02c0-3.6-2.9-6.6-6.6-6.6"/>
  <path class="cls-3" d="M90.52,16.42v-5.2h10.6v17.3h3.3v5.2h-13.9v-5.2h3.4v-12.1h-3.4ZM93.72,4.82c0-1.1.4-2,1.1-2.8.8-.8,1.7-1.2,2.8-1.2s2,.4,2.8,1.2c.8.8,1.1,1.7,1.1,2.8s-.4,2-1.1,2.8c-.8.8-1.7,1.1-2.8,1.1s-2-.4-2.8-1.2c-.7-.7-1.1-1.6-1.1-2.7Z"/>
</svg>