<?xml version="1.0" encoding="UTF-8"?>
<svg id="Ebene_1" data-name="Ebene 1" xmlns="http://www.w3.org/2000/svg" version="1.1" viewBox="0 0 1200 435.3">
  <defs>
    <style>
      .cls-1 {
        fill: #29293a;
        stroke-width: 0px;
      }
    </style>
  </defs>
  <path class="cls-1" d="M500.5,189.2h-30.8l-4.6,4.6c-6.8-4.7-15.3-7.1-23.3-3.7-4,1.5-8.2,5.5-8.6,10.1-.6,4.8,1.9,8.7,5.5,11.4,6.8,5,16,3.9,21.5,10.9,3.3,4.6-.6,12-12.6,7.3-4.6-2.1-5-2.3-11-6.7l-6.1,6.5,1.6,1.6,2.8-3c6.7,4.7,14.4,7.4,22.8,5.3,4.2-1.1,8.1-5.3,8.8-9.8.6-3.5-.2-6.9-2.5-9.3-3.9-4.6-16.7-8.7-16.7-8.7,0,0-9.4-2.8-9.3-7.7.1-2.7,2.9-4.6,4.9-5.3,7.6-2.3,15,2,21,6.4l2.1-2.3c4.2-4.3,11-4.5,15.6-4.7h8.2l-23.8,41.5h30.7l2.1-5c-4.4,1.8-16.6,2.4-21.6,2.2l23.3-41.4Z"/>
  <g>
    <path class="cls-1" d="M539.8,224.5h-17l-3,8.9h-9l15.3-43.8h11.9l14.6,43.8h-9.9l-2.9-8.9ZM537.2,216.6l-3.7-11.3c-.7-2.2-1.6-4.7-2.1-6.4-.4,1.6-1.4,4.2-2.2,6.4l-3.8,11.3h11.7Z"/>
    <path class="cls-1" d="M576.7,214.9c0-3.8-1.3-6.1-5.3-6.1s-3.9.5-5.6,1.6v22.9h-9.3v-32.2h7.8l.7,5.6h.3c2.2-4.4,5.2-6.1,9.9-6.1,8.2,0,10.9,4.9,10.9,13v19.7h-9.4v-18.4h0Z"/>
    <path class="cls-1" d="M617,226v7.3h-25.5l-.3-6.1,14.2-18.8h-13.5v-7.3h24.6l.3,6.1-14.1,18.8h14.3Z"/>
    <path class="cls-1" d="M637.1,233.9c-11.6,0-16.7-6.9-16.7-16.4s6.5-16.8,15.8-16.8,13.7,4.9,13.7,15.8,0,2.1-.1,3h-20c.2,4.5,3.5,6.6,8.2,6.6s6.5-1.1,8.8-2.6l2.5,7c-2.5,2-6.9,3.4-12.2,3.4ZM635.8,207.7c-3.5,0-5.8,2.3-6,6.6h11.2c.1-4.4-1.9-6.6-5.2-6.6Z"/>
    <path class="cls-1" d="M655.6,201.2h9.4v32.2h-9.4v-32.2ZM655.7,188.8h9.3v8.4h-9.3v-8.4Z"/>
    <path class="cls-1" d="M702.9,234.6c0,6.3-4.4,12.2-18.9,12.2s-14.1-2.6-14.1-7.3,2.1-6.1,6.3-7.7c-2.7-.9-3.9-2.6-3.9-5.2s1.1-4.5,4.2-6.3c-3.6-1.6-5.9-4.7-5.9-9.1,0-7.2,6-10.6,14.7-10.6s3,.1,4.3.3c2.2-.2,3-3,2.4-7.1h9.1c0,4.4-2.2,7.5-5.9,8.9,3.3,1.8,5,4.7,5,8.6,0,6.9-6,10.7-15.1,10.7s-2.7,0-4.1-.2c-.9.6-1.2,1.1-1.2,1.7,0,1.4,1.2,2,9,2.2,7.8.3,14,1.2,14,8.9ZM693.5,236.8c0-1.8-1.6-2.5-7.3-2.9l-5.8-.4c-2.2.8-3.2,2.2-3.2,3.7,0,2.1,2.3,3.7,7.5,3.7,5.1,0,8.8-1.4,8.8-4ZM679.7,211.4c0,2.8,1.9,4.8,5.8,4.8s5.7-2,5.7-4.8-1.9-5-5.7-5-5.8,2-5.8,5Z"/>
    <path class="cls-1" d="M721.4,233.9c-11.6,0-16.7-6.9-16.7-16.4s6.5-16.8,15.8-16.8,13.7,4.9,13.7,15.8,0,2.1-.1,3h-20c.2,4.5,3.5,6.6,8.2,6.6s6.5-1.1,8.8-2.6l2.5,7c-2.5,2-6.9,3.4-12.2,3.4ZM720.1,207.7c-3.5,0-5.8,2.3-6,6.6h11.2c.1-4.4-1.9-6.6-5.2-6.6Z"/>
    <path class="cls-1" d="M760.2,214.9c0-3.8-1.3-6.1-5.3-6.1s-3.9.5-5.6,1.6v22.9h-9.3v-32.2h7.8l.7,5.6h.3c2.2-4.4,5.2-6.1,9.9-6.1,8.2,0,10.9,4.9,10.9,13v19.7h-9.4v-18.4h0Z"/>
  </g>
</svg>